<?xml version="1.0" standalone="no"?>
<!DOCTYPE svg PUBLIC "-//W3C//DTD SVG 20010904//EN"
 "http://www.w3.org/TR/2001/REC-SVG-20010904/DTD/svg10.dtd">
<svg version="1.0" xmlns="http://www.w3.org/2000/svg"
 width="1416.000000pt" height="316.000000pt" viewBox="0 0 1416.000000 316.000000"
 preserveAspectRatio="xMidYMid meet">

<g transform="translate(0.000000,316.000000) scale(0.100000,-0.100000)"
fill="#000000" stroke="none">
<path d="M1190 2760 l0 -240 415 0 415 0 0 -47 c3 -681 -2 -1199 -10 -1243
-50 -269 -191 -442 -426 -526 -75 -27 -87 -28 -259 -29 -143 0 -193 4 -245 18
-281 77 -424 266 -448 592 l-7 90 -254 3 -253 2 6 -97 c14 -199 47 -331 120
-488 148 -315 455 -533 834 -590 125 -19 355 -19 482 -1 297 42 561 193 732
418 106 139 175 297 219 503 l24 110 0 880 0 880 -672 3 -673 2 0 -240z"/>
<path d="M3365 2228 c-7 -18 -66 -150 -130 -293 -64 -143 -192 -429 -285 -635
-93 -206 -214 -476 -270 -600 -125 -276 -200 -447 -200 -454 0 -3 91 -6 203
-6 l202 0 85 187 86 188 530 3 531 2 84 -190 84 -190 207 0 208 0 -9 23 c-5
12 -35 78 -66 147 -31 69 -121 269 -200 445 -79 176 -177 397 -219 490 -43 94
-83 184 -91 200 -36 82 -156 349 -225 502 -43 94 -81 181 -85 192 -6 20 -12
21 -216 21 l-210 0 -14 -32z m315 -603 c46 -104 107 -246 137 -315 92 -209
143 -330 143 -334 0 -2 -166 -5 -370 -5 -301 -1 -370 2 -370 12 0 8 38 101 85
208 47 107 129 294 183 416 53 122 99 219 103 215 3 -4 43 -92 89 -197z"/>
<path d="M4199 2238 c5 -13 40 -99 79 -193 39 -93 116 -280 172 -415 102 -248
136 -329 170 -410 11 -25 99 -236 196 -470 97 -234 185 -446 196 -472 l20 -48
198 0 197 0 15 38 c8 20 140 338 293 707 481 1159 525 1267 525 1277 0 5 -95
7 -211 6 l-211 -3 -67 -175 c-37 -96 -155 -398 -261 -670 -106 -272 -212 -543
-235 -602 -23 -59 -43 -110 -46 -113 -3 -2 -51 113 -107 258 -88 229 -193 499
-442 1145 l-63 162 -213 0 -214 0 9 -22z"/>
<path d="M6500 1250 l0 -1010 755 0 755 0 0 185 0 185 -565 0 -565 0 0 230 0
230 545 0 545 0 0 175 0 175 -545 0 -545 0 0 235 0 235 565 0 565 0 0 185 0
185 -755 0 -755 0 0 -1010z"/>
<path d="M8397 2253 c-4 -3 -7 -458 -7 -1010 l0 -1003 190 0 190 0 0 676 c0
454 3 673 10 669 10 -6 38 -41 469 -591 129 -165 315 -401 413 -527 l179 -227
120 0 119 0 0 1010 0 1010 -190 0 -190 0 -2 -626 -3 -626 -225 283 c-323 406
-527 663 -657 827 l-114 142 -148 0 c-81 0 -151 -3 -154 -7z"/>
<path d="M10430 1250 l0 -1010 755 0 755 0 0 185 0 185 -567 2 -568 3 0 225 0
225 548 3 547 2 0 175 0 175 -545 0 -545 0 -5 23 c-3 12 -4 117 -3 232 l3 210
568 3 567 2 0 185 0 185 -755 0 -755 0 0 -1010z"/>
<path d="M12174 2245 c3 -9 30 -50 59 -93 71 -102 458 -659 516 -742 25 -36
58 -83 73 -104 16 -22 27 -45 24 -52 -3 -7 -118 -176 -257 -376 -139 -199
-289 -415 -332 -478 -44 -63 -86 -122 -93 -131 -8 -8 -14 -19 -14 -22 0 -4 97
-6 216 -5 l217 3 194 285 c107 157 220 323 252 370 32 47 62 85 66 85 5 0 123
-168 262 -372 l254 -373 215 0 c118 0 214 2 214 5 0 4 -114 167 -562 808 -76
109 -138 201 -138 206 0 4 37 61 83 127 95 137 116 166 362 519 218 312 235
337 235 347 0 5 -94 8 -208 8 l-208 0 -253 -375 c-138 -206 -254 -375 -256
-375 -2 0 -117 169 -256 375 l-251 375 -210 0 c-184 0 -209 -2 -204 -15z"/>
</g>
</svg>
