<?xml version="1.0" standalone="no"?>
<!DOCTYPE svg PUBLIC "-//W3C//DTD SVG 20010904//EN"
 "http://www.w3.org/TR/2001/REC-SVG-20010904/DTD/svg10.dtd">
<svg version="1.0" xmlns="http://www.w3.org/2000/svg"
 width="1416.000000pt" height="316.000000pt" viewBox="0 0 1416.000000 316.000000"
 preserveAspectRatio="xMidYMid meet">

<g transform="translate(0.000000,316.000000) scale(0.100000,-0.100000)"
fill="#000000" stroke="none">
<path d="M1197 2983 c-2 -5 -4 -109 -3 -233 l1 -225 415 -5 415 -5 3 -590 c3
-612 0 -676 -39 -798 -34 -108 -101 -221 -171 -290 -42 -41 -137 -99 -210
-127 -102 -39 -244 -54 -394 -39 -369 35 -556 233 -589 626 l-7 83 -243 0
c-134 0 -246 -3 -248 -7 -3 -5 -1 -60 4 -123 44 -574 396 -958 954 -1041 438
-64 823 39 1089 292 179 169 283 367 334 634 21 106 21 142 24 983 l3 872
-667 0 c-367 0 -669 -3 -671 -7z"/>
<path d="M3275 2018 c-60 -134 -121 -270 -136 -303 -15 -33 -127 -283 -249
-555 -123 -272 -265 -589 -316 -703 -52 -115 -94 -211 -94 -213 0 -2 91 -4
203 -4 l202 0 85 190 85 190 533 0 534 0 21 -52 c12 -28 49 -113 83 -187 l61
-136 201 -3 c122 -1 202 1 202 7 0 10 -33 85 -315 711 -97 217 -249 555 -337
750 -87 195 -163 364 -168 375 -5 11 -25 55 -44 98 l-35 77 -203 0 -204 0
-109 -242z m444 -476 c69 -158 151 -346 183 -418 32 -72 58 -136 58 -143 0 -8
-100 -11 -375 -11 -206 0 -375 2 -375 5 0 4 218 507 327 753 25 56 48 102 52
102 3 -1 62 -130 130 -288z"/>
<path d="M4200 2250 c0 -6 67 -171 149 -368 139 -335 432 -1043 606 -1464 l78
-188 196 0 196 0 79 193 c43 105 100 244 127 307 26 63 98 237 159 385 62 149
127 306 145 350 114 270 325 784 325 789 0 3 -92 6 -204 6 -151 0 -206 -3
-213 -12 -6 -7 -36 -80 -68 -163 -84 -218 -240 -620 -328 -845 -42 -107 -106
-271 -142 -365 -36 -93 -70 -174 -74 -178 -5 -5 -23 28 -40 72 -17 45 -51 132
-75 194 -24 61 -85 220 -136 352 -51 132 -126 323 -165 425 -40 102 -101 260
-136 352 l-64 168 -207 0 c-133 0 -208 -4 -208 -10z"/>
<path d="M6500 1250 l0 -1010 755 0 755 0 0 185 0 185 -570 0 -570 0 0 230 0
230 550 0 550 0 0 175 0 175 -547 2 -548 3 -3 232 -2 233 567 2 568 3 3 183 2
182 -755 0 -755 0 0 -1010z"/>
<path d="M8400 1250 l0 -1010 185 0 185 0 2 682 3 683 89 -115 c89 -115 158
-202 631 -805 138 -176 273 -348 299 -382 l49 -63 113 0 114 0 0 1010 0 1010
-185 0 -185 0 0 -626 c0 -353 -4 -623 -9 -620 -5 3 -230 285 -502 626 l-493
620 -148 0 -148 0 0 -1010z"/>
<path d="M10430 1250 l0 -1010 755 0 755 0 0 185 0 185 -570 0 -570 0 0 230 0
230 548 2 547 3 0 170 0 170 -547 3 -548 2 0 235 0 235 568 2 567 3 0 180 0
180 -752 3 -753 2 0 -1010z"/>
<path d="M12170 2254 c0 -7 183 -272 567 -821 62 -89 113 -167 113 -173 0 -5
-153 -230 -340 -500 -188 -270 -343 -497 -347 -505 -4 -13 24 -15 204 -15
l209 0 130 190 c285 419 382 561 386 566 3 2 38 -44 79 -103 92 -136 314 -462
387 -570 l55 -83 209 0 c117 0 208 4 208 9 0 8 -138 208 -592 858 l-106 152
96 138 c53 76 206 295 340 487 134 192 246 356 249 363 4 10 -35 13 -203 13
l-209 0 -250 -375 c-137 -206 -254 -374 -260 -374 -5 -1 -28 27 -50 62 -22 34
-135 203 -250 374 l-210 313 -207 0 c-115 0 -208 -2 -208 -6z"/>
</g>
</svg>
